<svg xmlns="http://www.w3.org/2000/svg" width="360.418" height="571.77" viewBox="0 0 360.418 571.77">
  <path id="bubbles" d="M101.174,545.484c-19.5-12.477-76.941-42.109-70.7-61.344s71.742-8.838,95.656-15.6,42.369-8.838,62.384,0,20.015,10.657,17.675,35.351-.779,53.026-27.033,63.424a43.141,43.141,0,0,1-16.014,2.921C140.734,570.239,116.841,555.511,101.174,545.484Zm204.39-378.958c-24.84-13.427-30.425-50.817-33.4-73.771s-17.2-86.007,1.546-93.592S326.6,48.438,347.144,62.413s34,26.776,40.1,47.789,4.7,22.183-15.719,36.264c-15.578,10.742-31.317,24.583-48.935,24.582A35.292,35.292,0,0,1,305.564,166.525Z" transform="translate(-30 1.531)" fill="#fff" opacity="0.24"/>
</svg>
