<svg xmlns="http://www.w3.org/2000/svg" width="23" height="21" viewBox="0 0 23 21"><g transform="translate(-3.5 -4)"><g transform="translate(2 -1.573)"><g transform="translate(9 5.573)" fill="none" stroke="#adadad" stroke-width="1"><circle cx="4.5" cy="4.5" r="4.5" stroke="none"/><circle cx="4.5" cy="4.5" r="4" fill="none"/></g><g transform="translate(7.023 13.687)" fill="none"><path d="M12.841,6.886H0A10.324,10.324,0,0,1,2.721,0,5.48,5.48,0,0,0,6.587,1.55,5.521,5.521,0,0,0,10.279.163a10.48,10.48,0,0,1,2.562,6.722Z" stroke="none"/><path d="M 11.75321578979492 5.886016845703125 C 11.53510856628418 4.221352577209473 10.96478176116943 2.7041335105896 10.1178560256958 1.534909129142761 C 9.079626083374023 2.194583415985107 7.857544422149658 2.549936771392822 6.587226390838623 2.549936771392822 C 5.214741230010986 2.549936771392822 3.91381311416626 2.142436265945435 2.832132577896118 1.386856079101563 C 1.923505067825317 2.573038816452026 1.314550161361694 4.143352031707764 1.087749481201172 5.886016845703125 L 11.75321578979492 5.886016845703125 M 12.84147644042969 6.886137008666992 L 12.84071636199951 6.886016845703125 L -3.687133812491084e-06 6.886016845703125 C 0.1139263138175011 4.113456726074219 1.10611629486084 1.603906869888306 2.721346378326416 -3.164596591886948e-06 C 3.741516351699829 0.9994868636131287 5.114046096801758 1.549936890602112 6.587226390838623 1.549936890602112 C 7.967746257781982 1.549936890602112 9.278826713562012 1.057496786117554 10.27894592285156 0.1633168309926987 C 11.79839611053467 1.771566867828369 12.73197650909424 4.221616744995117 12.84144592285156 6.885286808013916 L 12.84147644042969 6.886137008666992 Z" stroke="none" fill="#adadad"/></g></g><line x2="10" transform="translate(3.5 24.5)" fill="none" stroke="#707070" stroke-width="1"/><line x2="10" transform="translate(16.5 24.5)" fill="none" stroke="#adadad" stroke-width="1"/></g></svg>