<svg xmlns="http://www.w3.org/2000/svg" width="281.671" height="191.887" viewBox="0 0 281.671 191.887">
  <g id="Logo" transform="matrix(0.951, 0.309, -0.309, 0.951, 23.099, -29.939)">
    <path id="Pfad_3" data-name="Pfad 3" d="M-537.041,102.345l58.35,53.709c14.588,13.427,63.655-27.352,84.873-36.469s82.552,52.217,110.07,69.622-78.077-8.951-104.1-11.935-81.06,31.827-108.081,42.437S-537.041,102.345-537.041,102.345Z" transform="translate(559 -78)" fill="#fff"/>
    <path id="Schnittmenge_1" data-name="Schnittmenge 1" d="M143.8,35.732c-14.856,2.42-42.44,12.024-67.3,18.576,20.92-7.043,51.169-30.5,66.63-37.142,21.22-9.118,82.554,52.216,110.072,69.621,2.325,1.47,3.7,2.628,4.251,3.514C219.324,66,162.734,32.647,143.8,35.732ZM25.779,54.96C20.407,43.509,8.468,18.055,0,0L58.268,53.635c2.74,2.521,6.7,3.13,11.457,2.4C58.5,58.768,48.17,60.645,40.27,60.645,32.928,60.644,27.684,59.022,25.779,54.96Z" transform="translate(22.041 24.42)" fill="#f57474" opacity="0.73"/>
    <path id="Schnittmenge_2" data-name="Schnittmenge 2" d="M0,0C8.98,21.008,22.69,53.081,28.678,67.086,37.96,88.8,101.284,35.755,125.486,25.313c18.821-8.121,94.178,21.65,126.76,35.291-10.064,3.535-86.007-14.919-107.532-17.388-26.024-2.985-81.061,31.827-108.08,42.436a8.611,8.611,0,0,1-3.165.625C17.01,86.278,5.756,34.948,0,0Z" transform="translate(26.435 56.056)" fill="#7feb79" opacity="0.76"/>
  </g>
</svg>
