<svg xmlns="http://www.w3.org/2000/svg" width="58.209" height="43.378" viewBox="0 0 58.209 43.378">
  <g id="menue_freunde" transform="translate(-35.12 152.2)">
    <g id="person" transform="translate(7 -1)">
      <circle id="head" cx="6.5" cy="6.5" r="6.5" transform="translate(48 -140)" fill="#fff" opacity="0.55"/>
      <path id="koerper" d="M13.725,17.275c-6.019,0-11.278-.452-13.725-1.18-.894-.266-1.359-.641-1.383-1.115-.1-1.988,7.6-5.146,7.675-5.178H8.4a6.5,6.5,0,0,0,11.2,0h1.561c.078.032,7.772,3.2,7.675,5.178-.023.474-.488.849-1.383,1.115C25,16.822,19.744,17.275,13.725,17.275Z" transform="translate(40.503 -138)" fill="#fff" opacity="0.59"/>
    </g>
    <path id="persons" d="M28.148,43.253c-.1-.029-.145-.068-.147-.119-.011-.211.806-.546.814-.549h.223a.69.69,0,0,0,1.189,0h.166c.009,0,.825.339.815.549,0,.05-.052.09-.147.119a6.3,6.3,0,0,1-1.457.125A6.29,6.29,0,0,1,28.148,43.253Zm.684-1.423a.831.831,0,1,1,.831.831A.831.831,0,0,1,28.832,41.83Zm15.315.423c-.1-.029-.145-.068-.147-.119-.011-.211.806-.546.815-.549h.223a.69.69,0,0,0,1.189,0h.166c.009,0,.825.339.815.549,0,.05-.052.09-.147.119a8.548,8.548,0,0,1-2.914,0Zm-32,0c-.1-.029-.145-.068-.147-.119-.011-.211.806-.546.815-.549h.223a.69.69,0,0,0,1.189,0h.166c.009,0,.825.339.815.549,0,.05-.052.09-.147.119a6.3,6.3,0,0,1-1.457.125A6.29,6.29,0,0,1,12.147,42.253ZM44.831,40.83a.831.831,0,1,1,.831.831A.831.831,0,0,1,44.831,40.83Zm-32,0a.831.831,0,1,1,.831.831A.831.831,0,0,1,12.831,40.83Zm6.316-1.577c-.1-.029-.145-.068-.147-.119-.011-.211.806-.546.814-.549h.223a.69.69,0,0,0,1.189,0h.166c.009,0,.825.339.815.549,0,.05-.052.09-.147.119a6.3,6.3,0,0,1-1.457.125A6.29,6.29,0,0,1,19.148,39.254Zm.684-1.423a.831.831,0,1,1,.831.831A.831.831,0,0,1,19.832,37.831Zm30.316-.577c-.1-.029-.145-.068-.147-.119-.011-.211.806-.546.814-.549h.223a.69.69,0,0,0,1.189,0h.166c.009,0,.825.339.815.549,0,.05-.052.09-.147.119a8.548,8.548,0,0,1-2.914,0Zm-16,0c-.1-.029-.145-.068-.147-.119-.011-.211.806-.546.814-.549h.223a.69.69,0,0,0,1.189,0h.166c.009,0,.825.339.815.549,0,.05-.052.09-.147.119a6.3,6.3,0,0,1-1.457.125A6.29,6.29,0,0,1,34.147,37.254Zm16.684-1.423a.831.831,0,1,1,.831.831A.831.831,0,0,1,50.831,35.831Zm-16,0a.831.831,0,1,1,.831.831A.831.831,0,0,1,34.831,35.831Zm-31.684.423c-.1-.029-.145-.068-.147-.119-.011-.211.806-.546.815-.549h.223a.69.69,0,0,0,1.189,0h.166c.009,0,.825.339.815.549,0,.05-.052.09-.147.119a6.3,6.3,0,0,1-1.457.125A6.29,6.29,0,0,1,3.147,36.254Zm.684-1.423a.831.831,0,1,1,.831.831A.831.831,0,0,1,3.831,34.831Zm38.316.422c-.1-.029-.145-.068-.147-.119-.011-.211.806-.546.814-.549h.223a.69.69,0,0,0,1.189,0h.166c.009,0,.825.339.815.549,0,.05-.052.09-.147.119a8.548,8.548,0,0,1-2.914,0Zm.684-1.423a.831.831,0,1,1,.831.831A.831.831,0,0,1,42.831,33.83Zm-16.684.423c-.1-.029-.145-.068-.147-.119-.011-.211.806-.546.814-.549h.223a.69.69,0,0,0,1.189,0h.166c.009,0,.825.339.815.549,0,.05-.052.09-.147.119a6.3,6.3,0,0,1-1.457.125A6.29,6.29,0,0,1,26.147,34.253Zm-16,0c-.1-.029-.145-.068-.147-.119-.011-.211.806-.546.814-.549h.223a.69.69,0,0,0,1.189,0h.166c.009,0,.825.339.815.549,0,.05-.052.09-.147.119a6.3,6.3,0,0,1-1.457.125A6.29,6.29,0,0,1,10.148,34.253ZM26.831,32.83a.831.831,0,1,1,.831.831A.831.831,0,0,1,26.831,32.83Zm-16,0a.831.831,0,1,1,.831.831A.831.831,0,0,1,10.832,32.83Zm21.316.423c-.1-.029-.145-.068-.147-.119-.011-.211.806-.546.814-.549h.223a.69.69,0,0,0,1.189,0h.166c.009,0,.825.339.815.549,0,.05-.052.09-.147.119a6.3,6.3,0,0,1-1.457.125A6.29,6.29,0,0,1,32.147,33.253Zm-13,0c-.1-.029-.145-.068-.147-.119-.011-.211.806-.546.814-.549h.223a.69.69,0,0,0,1.189,0h.166c.009,0,.825.339.815.549,0,.05-.052.09-.147.119a6.3,6.3,0,0,1-1.457.125A6.29,6.29,0,0,1,19.148,33.253ZM32.831,31.83a.831.831,0,1,1,.831.831A.831.831,0,0,1,32.831,31.83Zm-13,0a.831.831,0,1,1,.831.831A.831.831,0,0,1,19.832,31.83Zm35.316-1.577c-.1-.029-.145-.068-.147-.119-.011-.211.806-.546.814-.549h.223a.69.69,0,0,0,1.189,0h.166c.009,0,.825.339.815.549,0,.05-.052.09-.147.119a8.548,8.548,0,0,1-2.914,0Zm-49,0c-.1-.029-.145-.068-.147-.119-.011-.211.806-.546.815-.549h.223a.69.69,0,0,0,1.189,0h.166c.009,0,.825.339.815.549,0,.05-.052.09-.147.119a6.3,6.3,0,0,1-1.457.125A6.29,6.29,0,0,1,6.147,30.253Zm49.685-1.423a.831.831,0,1,1,.831.831A.831.831,0,0,1,55.832,28.831Zm-49,0a.831.831,0,1,1,.831.831A.831.831,0,0,1,6.831,28.831Zm38.316.423c-.1-.029-.145-.068-.147-.119-.011-.211.806-.546.815-.549h.223a.69.69,0,0,0,1.189,0h.166c.009,0,.825.339.815.549,0,.05-.052.09-.147.119a8.548,8.548,0,0,1-2.914,0Zm.684-1.423a.831.831,0,1,1,.831.831A.831.831,0,0,1,45.831,27.831ZM7.147,24.253c-.1-.029-.145-.068-.147-.119-.011-.211.806-.546.814-.549h.223a.69.69,0,0,0,1.189,0h.166c.009,0,.825.339.815.549,0,.05-.052.09-.147.119a6.3,6.3,0,0,1-1.457.125A6.29,6.29,0,0,1,7.147,24.253Zm.684-1.423a.831.831,0,1,1,.831.831A.831.831,0,0,1,7.831,22.83Zm34.316.423c-.1-.029-.145-.068-.147-.119-.011-.211.806-.546.814-.549h.223a.69.69,0,0,0,1.189,0h.166c.009,0,.825.339.815.549,0,.05-.052.09-.147.119a8.548,8.548,0,0,1-2.914,0Zm.684-1.423a.831.831,0,1,1,.831.831A.831.831,0,0,1,42.831,21.83Zm4.316-.577c-.1-.029-.145-.068-.147-.119-.011-.211.806-.546.814-.549h.223a.69.69,0,0,0,1.189,0h.166c.009,0,.825.339.815.549,0,.05-.052.09-.147.119a8.548,8.548,0,0,1-2.914,0Zm-47,0c-.1-.029-.145-.068-.147-.119-.011-.211.806-.546.815-.549h.223a.69.69,0,0,0,1.189,0h.166c.009,0,.825.339.815.549,0,.05-.052.09-.147.119a6.3,6.3,0,0,1-1.457.125A6.29,6.29,0,0,1,.147,21.253Zm47.685-1.423a.831.831,0,1,1,.831.831A.831.831,0,0,1,47.831,19.831Zm-47,0a.831.831,0,1,1,.831.831A.831.831,0,0,1,.831,19.831Zm35.316-.577c-.1-.029-.145-.068-.147-.119-.011-.211.806-.546.815-.549h.223a.69.69,0,0,0,1.189,0h.166c.009,0,.825.339.815.549,0,.05-.052.09-.147.119a6.3,6.3,0,0,1-1.457.125A6.29,6.29,0,0,1,36.147,19.254Zm-27,0c-.1-.029-.145-.068-.147-.119-.011-.211.806-.546.814-.549h.223a.69.69,0,0,0,1.189,0h.166c.009,0,.825.339.815.549,0,.05-.052.09-.147.119a6.3,6.3,0,0,1-1.457.125A6.29,6.29,0,0,1,9.147,19.254Zm27.684-1.423a.831.831,0,1,1,.831.831A.831.831,0,0,1,36.831,17.831Zm-27,0a.831.831,0,1,1,.831.831A.831.831,0,0,1,9.831,17.831Zm43.316-.578c-.1-.029-.145-.068-.147-.119-.011-.211.806-.546.814-.549h.223a.69.69,0,0,0,1.189,0h.166c.009,0,.825.339.815.549,0,.05-.052.09-.147.119a8.548,8.548,0,0,1-2.914,0Zm.684-1.423a.831.831,0,1,1,.831.831A.831.831,0,0,1,53.831,15.83Zm-38.684.423c-.1-.029-.145-.068-.147-.119-.011-.211.806-.546.814-.549h.223a.69.69,0,0,0,1.189,0h.166c.009,0,.825.339.815.549,0,.05-.052.09-.147.119a6.3,6.3,0,0,1-1.457.125A6.29,6.29,0,0,1,15.147,16.253Zm.684-1.423a.831.831,0,1,1,.831.831A.831.831,0,0,1,15.831,14.83Zm28.316.423c-.1-.029-.145-.068-.147-.119-.011-.211.806-.546.815-.549h.223a.69.69,0,0,0,1.189,0h.166c.009,0,.825.339.815.549,0,.05-.052.09-.147.119a8.548,8.548,0,0,1-2.914,0Zm.684-1.423a.831.831,0,1,1,.831.831A.831.831,0,0,1,44.831,13.83Zm-37.684.423c-.1-.029-.145-.068-.147-.119-.011-.211.806-.546.814-.549h.223a.69.69,0,0,0,1.189,0h.166c.009,0,.825.339.815.549,0,.05-.052.09-.147.119a6.3,6.3,0,0,1-1.457.125A6.29,6.29,0,0,1,7.147,14.253Zm.684-1.423a.831.831,0,1,1,.831.831A.831.831,0,0,1,7.831,12.83Zm25.316.423c-.1-.029-.145-.068-.147-.119-.011-.211.806-.546.814-.549h.223a.69.69,0,0,0,1.189,0h.166c.009,0,.825.339.815.549,0,.05-.052.09-.147.119a6.3,6.3,0,0,1-1.457.125A6.29,6.29,0,0,1,33.147,13.253Zm.684-1.423a.831.831,0,1,1,.831.831A.831.831,0,0,1,33.831,11.831ZM15.147,10.254c-.1-.029-.145-.068-.147-.119-.011-.211.806-.546.814-.549h.223a.69.69,0,0,0,1.189,0h.166c.009,0,.825.339.815.549,0,.05-.052.09-.147.119a6.3,6.3,0,0,1-1.457.125A6.29,6.29,0,0,1,15.147,10.254Zm.684-1.423a.831.831,0,1,1,.831.831A.831.831,0,0,1,15.831,8.831Zm20.316.423c-.1-.029-.145-.068-.147-.119-.011-.211.806-.546.815-.549h.223a.69.69,0,0,0,1.189,0h.166c.009,0,.825.339.815.549,0,.05-.052.09-.147.119a6.3,6.3,0,0,1-1.457.125A6.29,6.29,0,0,1,36.147,9.254Zm-11,0c-.1-.029-.145-.068-.147-.119-.011-.211.806-.546.815-.549h.223a.69.69,0,0,0,1.189,0h.166c.009,0,.825.339.815.549,0,.05-.052.09-.147.119a6.3,6.3,0,0,1-1.457.125A6.29,6.29,0,0,1,25.147,9.254ZM36.831,7.831a.831.831,0,1,1,.831.831A.831.831,0,0,1,36.831,7.831Zm-11,0a.831.831,0,1,1,.831.831A.831.831,0,0,1,25.831,7.831Zm4.316.422c-.1-.029-.145-.068-.147-.119-.011-.211.806-.546.815-.549h.223a.69.69,0,0,0,1.189,0h.166c.009,0,.825.339.815.549,0,.05-.052.09-.147.119a6.3,6.3,0,0,1-1.457.125A6.29,6.29,0,0,1,30.147,8.253Zm.684-1.423a.831.831,0,1,1,.831.831A.831.831,0,0,1,30.831,6.83ZM15.147,6.253c-.1-.029-.145-.068-.147-.119-.011-.211.806-.546.814-.549h.223a.69.69,0,0,0,1.189,0h.166c.009,0,.825.339.815.549,0,.05-.052.09-.147.119a6.3,6.3,0,0,1-1.457.125A6.29,6.29,0,0,1,15.147,6.253Zm.684-1.423a.831.831,0,1,1,.831.831A.831.831,0,0,1,15.831,4.83Zm14.316.423c-.1-.029-.145-.068-.147-.119-.011-.211.806-.546.815-.549h.223a.69.69,0,0,0,1.189,0h.166c.009,0,.825.339.815.549,0,.05-.052.09-.147.119a6.3,6.3,0,0,1-1.457.125A6.29,6.29,0,0,1,30.147,5.253Zm-9,0c-.1-.029-.145-.068-.147-.119-.011-.211.806-.546.814-.549h.223a.69.69,0,0,0,1.189,0h.166c.009,0,.825.339.815.549,0,.05-.052.09-.147.119a6.3,6.3,0,0,1-1.457.125A6.29,6.29,0,0,1,21.147,5.253ZM30.831,3.83a.831.831,0,1,1,.831.831A.831.831,0,0,1,30.831,3.83Zm-9,0a.831.831,0,1,1,.831.831A.831.831,0,0,1,21.831,3.83Zm4.316-1.577c-.1-.029-.145-.068-.147-.119-.011-.211.806-.546.814-.549h.223a.69.69,0,0,0,1.189,0h.166c.009,0,.825.339.815.549,0,.05-.052.09-.147.119a6.3,6.3,0,0,1-1.457.125A6.29,6.29,0,0,1,26.147,2.254ZM26.831.831a.831.831,0,1,1,.831.831A.831.831,0,0,1,26.831.831Z" transform="translate(35.12 -152.2)" fill="#fff" opacity="0.22"/>
  </g>
</svg>
