<svg xmlns="http://www.w3.org/2000/svg" width="67.869" height="46" viewBox="0 0 67.869 46">
  <g id="menue_overview" transform="translate(-166.131 -594)">
    <g id="liste">
      <path id="Pfad_137" data-name="Pfad 137" d="M2,0A2,2,0,1,1,0,2,2,2,0,0,1,2,0Z" transform="translate(178 605)" fill="#fff" opacity="0.55"/>
      <path id="Pfad_136" data-name="Pfad 136" d="M0,0H30" transform="translate(186.5 606.5)" fill="none" stroke="#fff" stroke-linecap="round" stroke-width="4" opacity="0.55"/>
      <path id="Pfad_135" data-name="Pfad 135" d="M2,0A2,2,0,1,1,0,2,2,2,0,0,1,2,0Z" transform="translate(178 612)" fill="#fff" opacity="0.55"/>
      <path id="Pfad_134" data-name="Pfad 134" d="M0,0H30" transform="translate(186.5 613.5)" fill="none" stroke="#fff" stroke-linecap="round" stroke-width="4" opacity="0.55"/>
      <path id="Pfad_133" data-name="Pfad 133" d="M2,0A2,2,0,1,1,0,2,2,2,0,0,1,2,0Z" transform="translate(178 619)" fill="#fff" opacity="0.55"/>
      <path id="Pfad_132" data-name="Pfad 132" d="M0,0H30" transform="translate(186.5 620.5)" fill="none" stroke="#fff" stroke-linecap="round" stroke-width="4" opacity="0.55"/>
      <path id="Pfad_131" data-name="Pfad 131" d="M2,0A2,2,0,1,1,0,2,2,2,0,0,1,2,0Z" transform="translate(178 626)" fill="#fff" opacity="0.55"/>
      <path id="Pfad_130" data-name="Pfad 130" d="M0,0H30" transform="translate(186.5 627.5)" fill="none" stroke="#fff" stroke-linecap="round" stroke-width="4" opacity="0.55"/>
    </g>
    <path id="dots" d="M-937.753,641a1,1,0,0,1,1-1,1,1,0,0,1,1,1,1,1,0,0,1-1,1A1,1,0,0,1-937.753,641Zm36-1a1,1,0,0,1,1-1,1,1,0,0,1,1,1,1,1,0,0,1-1,1A1,1,0,0,1-901.753,640Zm-17,0a1,1,0,0,1,1-1,1,1,0,0,1,1,1,1,1,0,0,1-1,1A1,1,0,0,1-918.753,640Zm-24,0a1,1,0,0,1,1-1,1,1,0,0,1,1,1,1,1,0,0,1-1,1A1,1,0,0,1-942.753,640Zm14-1a1,1,0,0,1,1-1,1,1,0,0,1,1,1,1,1,0,0,1-1,1A1,1,0,0,1-928.753,639Zm-19,0a1,1,0,0,1,1-1,1,1,0,0,1,1,1,1,1,0,0,1-1,1A1,1,0,0,1-947.753,639Zm14-1a1,1,0,0,1,1-1,1,1,0,0,1,1,1,1,1,0,0,1-1,1A1,1,0,0,1-933.753,638Zm26-1a1,1,0,0,1,1-1,1,1,0,0,1,1,1,1,1,0,0,1-1,1A1,1,0,0,1-907.753,637Zm-30,0a1,1,0,0,1,1-1,1,1,0,0,1,1,1,1,1,0,0,1-1,1A1,1,0,0,1-937.753,637Zm41-1a1,1,0,0,1,1-1,1,1,0,0,1,1,1,1,1,0,0,1-1,1A1,1,0,0,1-896.753,636Zm-16,0a1,1,0,0,1,1-1,1,1,0,0,1,1,1,1,1,0,0,1-1,1A1,1,0,0,1-912.753,636Zm-11,0a1,1,0,0,1,1-1,1,1,0,0,1,1,1,1,1,0,0,1-1,1A1,1,0,0,1-923.753,636Zm-20,0a1,1,0,0,1,1-1,1,1,0,0,1,1,1,1,1,0,0,1-1,1A1,1,0,0,1-943.753,636Zm14-1a1,1,0,0,1,1-1,1,1,0,0,1,1,1,1,1,0,0,1-1,1A1,1,0,0,1-929.753,635Zm30-1a1,1,0,0,1,1-1,1,1,0,0,1,1,1,1,1,0,0,1-1,1A1,1,0,0,1-899.753,634Zm-18,0a1,1,0,0,1,1-1,1,1,0,0,1,1,1,1,1,0,0,1-1,1A1,1,0,0,1-917.753,634Zm-32,0a1,1,0,0,1,1-1,1,1,0,0,1,1,1,1,1,0,0,1-1,1A1,1,0,0,1-949.753,634Zm41-1a1,1,0,0,1,1-1,1,1,0,0,1,1,1,1,1,0,0,1-1,1A1,1,0,0,1-908.753,633Zm19-2a1,1,0,0,1,1-1,1,1,0,0,1,1,1,1,1,0,0,1-1,1A1,1,0,0,1-889.753,631Zm-54,0a1,1,0,0,1,1-1,1,1,0,0,1,1,1,1,1,0,0,1-1,1A1,1,0,0,1-943.753,631Zm49-1a1,1,0,0,1,1-1,1,1,0,0,1,1,1,1,1,0,0,1-1,1A1,1,0,0,1-894.753,630Zm-52.113-1.892a1,1,0,0,1-.074-1.412,1,1,0,0,1,1.412-.074,1,1,0,0,1,.074,1.412,1,1,0,0,1-.743.331A1,1,0,0,1-946.866,628.108Zm3.113-1.108a1,1,0,0,1,1-1,1,1,0,0,1,1,1,1,1,0,0,1-1,1A1,1,0,0,1-943.753,627Zm51-1a1,1,0,0,1,1-1,1,1,0,0,1,1,1,1,1,0,0,1-1,1A1,1,0,0,1-892.753,626Zm-57,0a1,1,0,0,1,1-1,1,1,0,0,1,1,1,1,1,0,0,1-1,1A1,1,0,0,1-949.753,626Zm52-1a1,1,0,0,1,1-1,1,1,0,0,1,1,1,1,1,0,0,1-1,1A1,1,0,0,1-897.753,625Zm13-2a1,1,0,0,1,1-1,1,1,0,0,1,1,1,1,1,0,0,1-1,1A1,1,0,0,1-884.753,623Zm-60.436.136a1,1,0,0,1-.074-1.412,1,1,0,0,1,1.412-.074,1,1,0,0,1,.074,1.412,1,1,0,0,1-.743.331A1,1,0,0,1-945.189,623.136ZM-893.753,622a1,1,0,0,1,1-1,1,1,0,0,1,1,1,1,1,0,0,1-1,1A1,1,0,0,1-893.753,622Zm-48.979-1.44a1,1,0,0,1,.318-1.378,1,1,0,0,1,1.378.319,1,1,0,0,1-.318,1.378,1,1,0,0,1-.529.152A1,1,0,0,1-942.732,620.56Zm-5.247-.182a1,1,0,0,1-.074-1.412,1,1,0,0,1,1.412-.075,1,1,0,0,1,.074,1.413,1,1,0,0,1-.743.331A1,1,0,0,1-947.979,620.378Zm-2.491-.878a1,1,0,0,1,.319-1.378,1,1,0,0,1,1.378.318,1,1,0,0,1-.319,1.378,1,1,0,0,1-.529.152A1,1,0,0,1-950.47,619.5Zm58.717-1.5a1,1,0,0,1,1-1,1,1,0,0,1,1,1,1,1,0,0,1-1,1A1,1,0,0,1-891.753,618Zm-5-1a1,1,0,0,1,1-1,1,1,0,0,1,1,1,1,1,0,0,1-1,1A1,1,0,0,1-896.753,617Zm-48.1.167a1,1,0,0,1,.318-1.378,1,1,0,0,1,1.378.319,1,1,0,0,1-.318,1.378,1,1,0,0,1-.529.152A1,1,0,0,1-944.852,617.168Zm57.1-1.168a1,1,0,0,1,1-1,1,1,0,0,1,1,1,1,1,0,0,1-1,1A1,1,0,0,1-887.753,616Zm-8-3a1,1,0,0,1,1-1,1,1,0,0,1,1,1,1,1,0,0,1-1,1A1,1,0,0,1-895.753,613Zm6-1a1,1,0,0,1,1-1,1,1,0,0,1,1,1,1,1,0,0,1-1,1A1,1,0,0,1-889.753,612Zm-3,0a1,1,0,0,1,1-1,1,1,0,0,1,1,1,1,1,0,0,1-1,1A1,1,0,0,1-892.753,612Zm-53,0a1,1,0,0,1,1-1,1,1,0,0,1,1,1,1,1,0,0,1-1,1A1,1,0,0,1-945.753,612Zm5-1a1,1,0,0,1,1-1,1,1,0,0,1,1,1,1,1,0,0,1-1,1A1,1,0,0,1-940.753,611Zm47-2a1,1,0,0,1,1-1,1,1,0,0,1,1,1,1,1,0,0,1-1,1A1,1,0,0,1-893.753,609Zm-50,0a1,1,0,0,1,1-1,1,1,0,0,1,1,1,1,1,0,0,1-1,1A1,1,0,0,1-943.753,609Zm50-3a1,1,0,0,1,1-1,1,1,0,0,1,1,1,1,1,0,0,1-1,1A1,1,0,0,1-893.753,606Zm-50,0a1,1,0,0,1,1-1,1,1,0,0,1,1,1,1,1,0,0,1-1,1A1,1,0,0,1-943.753,606Zm45-1a1,1,0,0,1,1-1,1,1,0,0,1,1,1,1,1,0,0,1-1,1A1,1,0,0,1-898.753,605Zm-11,0a1,1,0,0,1,1-1,1,1,0,0,1,1,1,1,1,0,0,1-1,1A1,1,0,0,1-909.753,605Zm-12,0a1,1,0,0,1,1-1,1,1,0,0,1,1,1,1,1,0,0,1-1,1A1,1,0,0,1-921.753,605Zm32-1a1,1,0,0,1,1-1,1,1,0,0,1,1,1,1,1,0,0,1-1,1A1,1,0,0,1-889.753,604Zm-38,0a1,1,0,0,1,1-1,1,1,0,0,1,1,1,1,1,0,0,1-1,1A1,1,0,0,1-927.753,604Zm22-1a1,1,0,0,1,1-1,1,1,0,0,1,1,1,1,1,0,0,1-1,1A1,1,0,0,1-905.753,603Zm-7,0a1,1,0,0,1,1-1,1,1,0,0,1,1,1,1,1,0,0,1-1,1A1,1,0,0,1-912.753,603Zm-5,0a1,1,0,0,1,1-1,1,1,0,0,1,1,1,1,1,0,0,1-1,1A1,1,0,0,1-917.753,603Zm-22,0a1,1,0,0,1,1-1,1,1,0,0,1,1,1,1,1,0,0,1-1,1A1,1,0,0,1-939.753,603Zm-7,0a1,1,0,0,1,1-1,1,1,0,0,1,1,1,1,1,0,0,1-1,1A1,1,0,0,1-946.753,603Zm13-1a1,1,0,0,1,1-1,1,1,0,0,1,1,1,1,1,0,0,1-1,1A1,1,0,0,1-933.753,602Zm36-1a1,1,0,0,1,1-1,1,1,0,0,1,1,1,1,1,0,0,1-1,1A1,1,0,0,1-897.753,601Zm-28,0a1,1,0,0,1,1-1,1,1,0,0,1,1,1,1,1,0,0,1-1,1A1,1,0,0,1-925.753,601Zm34-1a1,1,0,0,1,1-1,1,1,0,0,1,1,1,1,1,0,0,1-1,1A1,1,0,0,1-891.753,600Zm-9-1a1,1,0,0,1,1-1,1,1,0,0,1,1,1,1,1,0,0,1-1,1A1,1,0,0,1-900.753,599Zm-5,0a1,1,0,0,1,1-1,1,1,0,0,1,1,1,1,1,0,0,1-1,1A1,1,0,0,1-905.753,599Zm-4,0a1,1,0,0,1,1-1,1,1,0,0,1,1,1,1,1,0,0,1-1,1A1,1,0,0,1-909.753,599Zm-10,0a1,1,0,0,1,1-1,1,1,0,0,1,1,1,1,1,0,0,1-1,1A1,1,0,0,1-919.753,599Zm24-2a1,1,0,0,1,1-1,1,1,0,0,1,1,1,1,1,0,0,1-1,1A1,1,0,0,1-895.753,597Z" transform="translate(1116.753 -2)" fill="#fff" opacity="0.22"/>
  </g>
</svg>
