<svg xmlns="http://www.w3.org/2000/svg" width="11" height="22" viewBox="0 0 11 22"><g transform="translate(699 -263)"><g transform="translate(-699 270)" fill="#fff" stroke="#b56464" stroke-linejoin="bevel" stroke-width="1"><rect width="11" height="15" stroke="none"/><rect x="0.5" y="0.5" width="10" height="14" fill="none"/></g><g transform="translate(-699 264)" fill="#fff"><path d="M 10.49980068206787 4.500400066375732 L 0.5000003576278687 4.500400066375732 L 0.5000003576278687 1.999800086021423 L 0.5000003576278687 1.903879404067993 L 0.5157403349876404 1.808590054512024 C 0.6102403402328491 1.236520051956177 1.152690291404724 0.6637800931930542 2.004000425338745 0.2372301071882248 C 2.952690362930298 -0.238119900226593 4.194220542907715 -0.4998998939990997 5.499900341033936 -0.4998998939990997 C 6.805580139160156 -0.4998998939990997 8.047110557556152 -0.238119900226593 8.995800018310547 0.2372301071882248 C 9.847100257873535 0.6637800931930542 10.38955020904541 1.236520051956177 10.48405075073242 1.808590054512024 L 10.49980068206787 1.903939962387085 L 10.49980068206787 4.500400066375732 Z" stroke="none"/><path d="M 9.999800682067871 4.000400066375732 L 9.999800682067871 1.944989442825317 L 9.990730285644531 1.890080094337463 C 9.843060493469238 0.9961500763893127 7.962430477142334 0.000100101089628879 5.499900341033936 0.000100101089628879 C 3.037360429763794 0.000100101089628879 1.1567302942276 0.9961500763893127 1.009060382843018 1.890080094337463 L 1.000000357627869 1.944929003715515 L 1.000000357627869 1.999800086021423 L 1.000000357627869 4.000400066375732 L 9.999800682067871 4.000400066375732 M 10.99980068206787 5.000400066375732 L 3.410339388665307e-07 5.000400066375732 L 3.410339388665307e-07 1.999800086021423 L 3.410339388665307e-07 1.727100133895874 L 0.02243034169077873 1.727100133895874 C 0.275010347366333 0.198040097951889 2.63092041015625 -0.9998999238014221 5.499900341033936 -0.9998999238014221 C 8.368880271911621 -0.9998999238014221 10.72478008270264 0.198040097951889 10.97736072540283 1.727100133895874 L 10.99980068206787 1.727100133895874 L 10.99980068206787 5.000400066375732 Z" stroke="none" fill="#b56464"/></g><line y2="11.081" transform="translate(-696.576 271.965)" fill="none" stroke="#b56464" stroke-width="1"/><line y2="11.081" transform="translate(-694.498 271.965)" fill="none" stroke="#b56464" stroke-width="1"/><line y2="11.081" transform="translate(-692.421 271.965)" fill="none" stroke="#b56464" stroke-width="1"/><line y2="11.081" transform="translate(-690.343 271.965)" fill="none" stroke="#b56464" stroke-width="1"/></g></svg>