<svg xmlns="http://www.w3.org/2000/svg" width="19.794" height="13" viewBox="0 0 19.794 13">
  <g id="person_dark" transform="translate(-63.12 -91.626)">
    <circle id="head" cx="4.5" cy="4.5" r="4.5" transform="translate(69 91.626)" fill="#505050"/>
    <path id="koerper" d="M9.9,4.9A38.869,38.869,0,0,1,.906,4.122C.321,3.948.016,3.7,0,3.392-.063,2.09,4.978.021,5.029,0H6.407a4.279,4.279,0,0,0,3.668,2.095A4.279,4.279,0,0,0,13.744,0h1.022c.051.021,5.091,2.1,5.028,3.392-.015.31-.32.556-.906.73A38.869,38.869,0,0,1,9.9,4.9Z" transform="translate(63.12 99.731)" fill="#505050"/>
  </g>
</svg>
